<?xml version="1.0" encoding="utf-8" standalone="no"?>
<!DOCTYPE svg PUBLIC "-//W3C//DTD SVG 1.1//EN"
  "http://www.w3.org/Graphics/SVG/1.1/DTD/svg11.dtd">
<svg xmlns:xlink="http://www.w3.org/1999/xlink" width="864pt" height="360pt" viewBox="0 0 864 360" xmlns="http://www.w3.org/2000/svg" version="1.1">
 <metadata>
  <rdf:RDF xmlns:dc="http://purl.org/dc/elements/1.1/" xmlns:cc="http://creativecommons.org/ns#" xmlns:rdf="http://www.w3.org/1999/02/22-rdf-syntax-ns#">
   <cc:Work>
    <dc:type rdf:resource="http://purl.org/dc/dcmitype/StillImage"/>
    <dc:date>2024-11-17T20:06:17.063518</dc:date>
    <dc:format>image/svg+xml</dc:format>
    <dc:creator>
     <cc:Agent>
      <dc:title>Matplotlib v3.9.2, https://matplotlib.org/</dc:title>
     </cc:Agent>
    </dc:creator>
   </cc:Work>
  </rdf:RDF>
 </metadata>
 <defs>
  <style type="text/css">*{stroke-linejoin: round; stroke-linecap: butt}</style>
 </defs>
 <g id="figure_1">
  <g id="patch_1">
   <path d="M 0 360 
L 864 360 
L 864 0 
L 0 0 
L 0 360 
z
" style="fill: none; opacity: 0"/>
  </g>
  <g id="axes_1">
   <g id="patch_2">
    <path d="M 108 320.4 
L 777.6 320.4 
L 777.6 43.2 
L 108 43.2 
L 108 320.4 
z
" style="fill: none; opacity: 0"/>
   </g>
   <g id="matplotlib.axis_1">
    <g id="xtick_1">
     <g id="line2d_1">
      <path d="M 158.024122 320.4 
L 158.024122 43.2 
" clip-path="url(#p12095a9dd5)" style="fill: none; stroke-dasharray: 5.12,1.28,0.8,1.28; stroke-dashoffset: 0; stroke: #b0b0b0; stroke-width: 0.8"/>
     </g>
     <g id="line2d_2">
      <defs>
       <path id="m5d08dd7940" d="M 0 0 
L 0 3.5 
" style="stroke: #a9a9a9; stroke-width: 0.8"/>
      </defs>
      <g>
       <use xlink:href="#m5d08dd7940" x="158.024122" y="320.4" style="fill: #a9a9a9; stroke: #a9a9a9; stroke-width: 0.8"/>
      </g>
     </g>
     <g id="text_1">
      <!-- 2021-09 -->
      <g style="fill: #a9a9a9" transform="translate(137.132716 334.998438) scale(0.1 -0.1)">
       <defs>
        <path id="DejaVuSans-32" d="M 1228 531 
L 3431 531 
L 3431 0 
L 469 0 
L 469 531 
Q 828 903 1448 1529 
Q 2069 2156 2228 2338 
Q 2531 2678 2651 2914 
Q 2772 3150 2772 3378 
Q 2772 3750 2511 3984 
Q 2250 4219 1831 4219 
Q 1534 4219 1204 4116 
Q 875 4013 500 3803 
L 500 4441 
Q 881 4594 1212 4672 
Q 1544 4750 1819 4750 
Q 2544 4750 2975 4387 
Q 3406 4025 3406 3419 
Q 3406 3131 3298 2873 
Q 3191 2616 2906 2266 
Q 2828 2175 2409 1742 
Q 1991 1309 1228 531 
z
" transform="scale(0.015625)"/>
        <path id="DejaVuSans-30" d="M 2034 4250 
Q 1547 4250 1301 3770 
Q 1056 3291 1056 2328 
Q 1056 1369 1301 889 
Q 1547 409 2034 409 
Q 2525 409 2770 889 
Q 3016 1369 3016 2328 
Q 3016 3291 2770 3770 
Q 2525 4250 2034 4250 
z
M 2034 4750 
Q 2819 4750 3233 4129 
Q 3647 3509 3647 2328 
Q 3647 1150 3233 529 
Q 2819 -91 2034 -91 
Q 1250 -91 836 529 
Q 422 1150 422 2328 
Q 422 3509 836 4129 
Q 1250 4750 2034 4750 
z
" transform="scale(0.015625)"/>
        <path id="DejaVuSans-31" d="M 794 531 
L 1825 531 
L 1825 4091 
L 703 3866 
L 703 4441 
L 1819 4666 
L 2450 4666 
L 2450 531 
L 3481 531 
L 3481 0 
L 794 0 
L 794 531 
z
" transform="scale(0.015625)"/>
        <path id="DejaVuSans-2d" d="M 313 2009 
L 1997 2009 
L 1997 1497 
L 313 1497 
L 313 2009 
z
" transform="scale(0.015625)"/>
        <path id="DejaVuSans-39" d="M 703 97 
L 703 672 
Q 941 559 1184 500 
Q 1428 441 1663 441 
Q 2288 441 2617 861 
Q 2947 1281 2994 2138 
Q 2813 1869 2534 1725 
Q 2256 1581 1919 1581 
Q 1219 1581 811 2004 
Q 403 2428 403 3163 
Q 403 3881 828 4315 
Q 1253 4750 1959 4750 
Q 2769 4750 3195 4129 
Q 3622 3509 3622 2328 
Q 3622 1225 3098 567 
Q 2575 -91 1691 -91 
Q 1453 -91 1209 -44 
Q 966 3 703 97 
z
M 1959 2075 
Q 2384 2075 2632 2365 
Q 2881 2656 2881 3163 
Q 2881 3666 2632 3958 
Q 2384 4250 1959 4250 
Q 1534 4250 1286 3958 
Q 1038 3666 1038 3163 
Q 1038 2656 1286 2365 
Q 1534 2075 1959 2075 
z
" transform="scale(0.015625)"/>
       </defs>
       <use xlink:href="#DejaVuSans-32"/>
       <use xlink:href="#DejaVuSans-30" x="63.623047"/>
       <use xlink:href="#DejaVuSans-32" x="127.246094"/>
       <use xlink:href="#DejaVuSans-31" x="190.869141"/>
       <use xlink:href="#DejaVuSans-2d" x="254.492188"/>
       <use xlink:href="#DejaVuSans-30" x="290.576172"/>
       <use xlink:href="#DejaVuSans-39" x="354.199219"/>
      </g>
     </g>
    </g>
    <g id="xtick_2">
     <g id="line2d_3">
      <path d="M 219.29865 320.4 
L 219.29865 43.2 
" clip-path="url(#p12095a9dd5)" style="fill: none; stroke-dasharray: 5.12,1.28,0.8,1.28; stroke-dashoffset: 0; stroke: #b0b0b0; stroke-width: 0.8"/>
     </g>
     <g id="line2d_4">
      <g>
       <use xlink:href="#m5d08dd7940" x="219.29865" y="320.4" style="fill: #a9a9a9; stroke: #a9a9a9; stroke-width: 0.8"/>
      </g>
     </g>
     <g id="text_2">
      <!-- 2022-01 -->
      <g style="fill: #a9a9a9" transform="translate(198.407244 334.998438) scale(0.1 -0.1)">
       <use xlink:href="#DejaVuSans-32"/>
       <use xlink:href="#DejaVuSans-30" x="63.623047"/>
       <use xlink:href="#DejaVuSans-32" x="127.246094"/>
       <use xlink:href="#DejaVuSans-32" x="190.869141"/>
       <use xlink:href="#DejaVuSans-2d" x="254.492188"/>
       <use xlink:href="#DejaVuSans-30" x="290.576172"/>
       <use xlink:href="#DejaVuSans-31" x="354.199219"/>
      </g>
     </g>
    </g>
    <g id="xtick_3">
     <g id="line2d_5">
      <path d="M 279.568677 320.4 
L 279.568677 43.2 
" clip-path="url(#p12095a9dd5)" style="fill: none; stroke-dasharray: 5.12,1.28,0.8,1.28; stroke-dashoffset: 0; stroke: #b0b0b0; stroke-width: 0.8"/>
     </g>
     <g id="line2d_6">
      <g>
       <use xlink:href="#m5d08dd7940" x="279.568677" y="320.4" style="fill: #a9a9a9; stroke: #a9a9a9; stroke-width: 0.8"/>
      </g>
     </g>
     <g id="text_3">
      <!-- 2022-05 -->
      <g style="fill: #a9a9a9" transform="translate(258.677271 334.998438) scale(0.1 -0.1)">
       <defs>
        <path id="DejaVuSans-35" d="M 691 4666 
L 3169 4666 
L 3169 4134 
L 1269 4134 
L 1269 2991 
Q 1406 3038 1543 3061 
Q 1681 3084 1819 3084 
Q 2600 3084 3056 2656 
Q 3513 2228 3513 1497 
Q 3513 744 3044 326 
Q 2575 -91 1722 -91 
Q 1428 -91 1123 -41 
Q 819 9 494 109 
L 494 744 
Q 775 591 1075 516 
Q 1375 441 1709 441 
Q 2250 441 2565 725 
Q 2881 1009 2881 1497 
Q 2881 1984 2565 2268 
Q 2250 2553 1709 2553 
Q 1456 2553 1204 2497 
Q 953 2441 691 2322 
L 691 4666 
z
" transform="scale(0.015625)"/>
       </defs>
       <use xlink:href="#DejaVuSans-32"/>
       <use xlink:href="#DejaVuSans-30" x="63.623047"/>
       <use xlink:href="#DejaVuSans-32" x="127.246094"/>
       <use xlink:href="#DejaVuSans-32" x="190.869141"/>
       <use xlink:href="#DejaVuSans-2d" x="254.492188"/>
       <use xlink:href="#DejaVuSans-30" x="290.576172"/>
       <use xlink:href="#DejaVuSans-35" x="354.199219"/>
      </g>
     </g>
    </g>
    <g id="xtick_4">
     <g id="line2d_7">
      <path d="M 341.345455 320.4 
L 341.345455 43.2 
" clip-path="url(#p12095a9dd5)" style="fill: none; stroke-dasharray: 5.12,1.28,0.8,1.28; stroke-dashoffset: 0; stroke: #b0b0b0; stroke-width: 0.8"/>
     </g>
     <g id="line2d_8">
      <g>
       <use xlink:href="#m5d08dd7940" x="341.345455" y="320.4" style="fill: #a9a9a9; stroke: #a9a9a9; stroke-width: 0.8"/>
      </g>
     </g>
     <g id="text_4">
      <!-- 2022-09 -->
      <g style="fill: #a9a9a9" transform="translate(320.454048 334.998438) scale(0.1 -0.1)">
       <use xlink:href="#DejaVuSans-32"/>
       <use xlink:href="#DejaVuSans-30" x="63.623047"/>
       <use xlink:href="#DejaVuSans-32" x="127.246094"/>
       <use xlink:href="#DejaVuSans-32" x="190.869141"/>
       <use xlink:href="#DejaVuSans-2d" x="254.492188"/>
       <use xlink:href="#DejaVuSans-30" x="290.576172"/>
       <use xlink:href="#DejaVuSans-39" x="354.199219"/>
      </g>
     </g>
    </g>
    <g id="xtick_5">
     <g id="line2d_9">
      <path d="M 402.619982 320.4 
L 402.619982 43.2 
" clip-path="url(#p12095a9dd5)" style="fill: none; stroke-dasharray: 5.12,1.28,0.8,1.28; stroke-dashoffset: 0; stroke: #b0b0b0; stroke-width: 0.8"/>
     </g>
     <g id="line2d_10">
      <g>
       <use xlink:href="#m5d08dd7940" x="402.619982" y="320.4" style="fill: #a9a9a9; stroke: #a9a9a9; stroke-width: 0.8"/>
      </g>
     </g>
     <g id="text_5">
      <!-- 2023-01 -->
      <g style="fill: #a9a9a9" transform="translate(381.728576 334.998438) scale(0.1 -0.1)">
       <defs>
        <path id="DejaVuSans-33" d="M 2597 2516 
Q 3050 2419 3304 2112 
Q 3559 1806 3559 1356 
Q 3559 666 3084 287 
Q 2609 -91 1734 -91 
Q 1441 -91 1130 -33 
Q 819 25 488 141 
L 488 750 
Q 750 597 1062 519 
Q 1375 441 1716 441 
Q 2309 441 2620 675 
Q 2931 909 2931 1356 
Q 2931 1769 2642 2001 
Q 2353 2234 1838 2234 
L 1294 2234 
L 1294 2753 
L 1863 2753 
Q 2328 2753 2575 2939 
Q 2822 3125 2822 3475 
Q 2822 3834 2567 4026 
Q 2313 4219 1838 4219 
Q 1578 4219 1281 4162 
Q 984 4106 628 3988 
L 628 4550 
Q 988 4650 1302 4700 
Q 1616 4750 1894 4750 
Q 2613 4750 3031 4423 
Q 3450 4097 3450 3541 
Q 3450 3153 3228 2886 
Q 3006 2619 2597 2516 
z
" transform="scale(0.015625)"/>
       </defs>
       <use xlink:href="#DejaVuSans-32"/>
       <use xlink:href="#DejaVuSans-30" x="63.623047"/>
       <use xlink:href="#DejaVuSans-32" x="127.246094"/>
       <use xlink:href="#DejaVuSans-33" x="190.869141"/>
       <use xlink:href="#DejaVuSans-2d" x="254.492188"/>
       <use xlink:href="#DejaVuSans-30" x="290.576172"/>
       <use xlink:href="#DejaVuSans-31" x="354.199219"/>
      </g>
     </g>
    </g>
    <g id="xtick_6">
     <g id="line2d_11">
      <path d="M 462.890009 320.4 
L 462.890009 43.2 
" clip-path="url(#p12095a9dd5)" style="fill: none; stroke-dasharray: 5.12,1.28,0.8,1.28; stroke-dashoffset: 0; stroke: #b0b0b0; stroke-width: 0.8"/>
     </g>
     <g id="line2d_12">
      <g>
       <use xlink:href="#m5d08dd7940" x="462.890009" y="320.4" style="fill: #a9a9a9; stroke: #a9a9a9; stroke-width: 0.8"/>
      </g>
     </g>
     <g id="text_6">
      <!-- 2023-05 -->
      <g style="fill: #a9a9a9" transform="translate(441.998603 334.998438) scale(0.1 -0.1)">
       <use xlink:href="#DejaVuSans-32"/>
       <use xlink:href="#DejaVuSans-30" x="63.623047"/>
       <use xlink:href="#DejaVuSans-32" x="127.246094"/>
       <use xlink:href="#DejaVuSans-33" x="190.869141"/>
       <use xlink:href="#DejaVuSans-2d" x="254.492188"/>
       <use xlink:href="#DejaVuSans-30" x="290.576172"/>
       <use xlink:href="#DejaVuSans-35" x="354.199219"/>
      </g>
     </g>
    </g>
    <g id="xtick_7">
     <g id="line2d_13">
      <path d="M 524.666787 320.4 
L 524.666787 43.2 
" clip-path="url(#p12095a9dd5)" style="fill: none; stroke-dasharray: 5.12,1.28,0.8,1.28; stroke-dashoffset: 0; stroke: #b0b0b0; stroke-width: 0.8"/>
     </g>
     <g id="line2d_14">
      <g>
       <use xlink:href="#m5d08dd7940" x="524.666787" y="320.4" style="fill: #a9a9a9; stroke: #a9a9a9; stroke-width: 0.8"/>
      </g>
     </g>
     <g id="text_7">
      <!-- 2023-09 -->
      <g style="fill: #a9a9a9" transform="translate(503.77538 334.998438) scale(0.1 -0.1)">
       <use xlink:href="#DejaVuSans-32"/>
       <use xlink:href="#DejaVuSans-30" x="63.623047"/>
       <use xlink:href="#DejaVuSans-32" x="127.246094"/>
       <use xlink:href="#DejaVuSans-33" x="190.869141"/>
       <use xlink:href="#DejaVuSans-2d" x="254.492188"/>
       <use xlink:href="#DejaVuSans-30" x="290.576172"/>
       <use xlink:href="#DejaVuSans-39" x="354.199219"/>
      </g>
     </g>
    </g>
    <g id="xtick_8">
     <g id="line2d_15">
      <path d="M 585.941314 320.4 
L 585.941314 43.2 
" clip-path="url(#p12095a9dd5)" style="fill: none; stroke-dasharray: 5.12,1.28,0.8,1.28; stroke-dashoffset: 0; stroke: #b0b0b0; stroke-width: 0.8"/>
     </g>
     <g id="line2d_16">
      <g>
       <use xlink:href="#m5d08dd7940" x="585.941314" y="320.4" style="fill: #a9a9a9; stroke: #a9a9a9; stroke-width: 0.8"/>
      </g>
     </g>
     <g id="text_8">
      <!-- 2024-01 -->
      <g style="fill: #a9a9a9" transform="translate(565.049908 334.998438) scale(0.1 -0.1)">
       <defs>
        <path id="DejaVuSans-34" d="M 2419 4116 
L 825 1625 
L 2419 1625 
L 2419 4116 
z
M 2253 4666 
L 3047 4666 
L 3047 1625 
L 3713 1625 
L 3713 1100 
L 3047 1100 
L 3047 0 
L 2419 0 
L 2419 1100 
L 313 1100 
L 313 1709 
L 2253 4666 
z
" transform="scale(0.015625)"/>
       </defs>
       <use xlink:href="#DejaVuSans-32"/>
       <use xlink:href="#DejaVuSans-30" x="63.623047"/>
       <use xlink:href="#DejaVuSans-32" x="127.246094"/>
       <use xlink:href="#DejaVuSans-34" x="190.869141"/>
       <use xlink:href="#DejaVuSans-2d" x="254.492188"/>
       <use xlink:href="#DejaVuSans-30" x="290.576172"/>
       <use xlink:href="#DejaVuSans-31" x="354.199219"/>
      </g>
     </g>
    </g>
    <g id="xtick_9">
     <g id="line2d_17">
      <path d="M 646.713591 320.4 
L 646.713591 43.2 
" clip-path="url(#p12095a9dd5)" style="fill: none; stroke-dasharray: 5.12,1.28,0.8,1.28; stroke-dashoffset: 0; stroke: #b0b0b0; stroke-width: 0.8"/>
     </g>
     <g id="line2d_18">
      <g>
       <use xlink:href="#m5d08dd7940" x="646.713591" y="320.4" style="fill: #a9a9a9; stroke: #a9a9a9; stroke-width: 0.8"/>
      </g>
     </g>
     <g id="text_9">
      <!-- 2024-05 -->
      <g style="fill: #a9a9a9" transform="translate(625.822185 334.998438) scale(0.1 -0.1)">
       <use xlink:href="#DejaVuSans-32"/>
       <use xlink:href="#DejaVuSans-30" x="63.623047"/>
       <use xlink:href="#DejaVuSans-32" x="127.246094"/>
       <use xlink:href="#DejaVuSans-34" x="190.869141"/>
       <use xlink:href="#DejaVuSans-2d" x="254.492188"/>
       <use xlink:href="#DejaVuSans-30" x="290.576172"/>
       <use xlink:href="#DejaVuSans-35" x="354.199219"/>
      </g>
     </g>
    </g>
    <g id="xtick_10">
     <g id="line2d_19">
      <path d="M 708.490369 320.4 
L 708.490369 43.2 
" clip-path="url(#p12095a9dd5)" style="fill: none; stroke-dasharray: 5.12,1.28,0.8,1.28; stroke-dashoffset: 0; stroke: #b0b0b0; stroke-width: 0.8"/>
     </g>
     <g id="line2d_20">
      <g>
       <use xlink:href="#m5d08dd7940" x="708.490369" y="320.4" style="fill: #a9a9a9; stroke: #a9a9a9; stroke-width: 0.8"/>
      </g>
     </g>
     <g id="text_10">
      <!-- 2024-09 -->
      <g style="fill: #a9a9a9" transform="translate(687.598963 334.998438) scale(0.1 -0.1)">
       <use xlink:href="#DejaVuSans-32"/>
       <use xlink:href="#DejaVuSans-30" x="63.623047"/>
       <use xlink:href="#DejaVuSans-32" x="127.246094"/>
       <use xlink:href="#DejaVuSans-34" x="190.869141"/>
       <use xlink:href="#DejaVuSans-2d" x="254.492188"/>
       <use xlink:href="#DejaVuSans-30" x="290.576172"/>
       <use xlink:href="#DejaVuSans-39" x="354.199219"/>
      </g>
     </g>
    </g>
    <g id="xtick_11">
     <g id="line2d_21">
      <path d="M 769.764896 320.4 
L 769.764896 43.2 
" clip-path="url(#p12095a9dd5)" style="fill: none; stroke-dasharray: 5.12,1.28,0.8,1.28; stroke-dashoffset: 0; stroke: #b0b0b0; stroke-width: 0.8"/>
     </g>
     <g id="line2d_22">
      <g>
       <use xlink:href="#m5d08dd7940" x="769.764896" y="320.4" style="fill: #a9a9a9; stroke: #a9a9a9; stroke-width: 0.8"/>
      </g>
     </g>
     <g id="text_11">
      <!-- 2025-01 -->
      <g style="fill: #a9a9a9" transform="translate(748.87349 334.998438) scale(0.1 -0.1)">
       <use xlink:href="#DejaVuSans-32"/>
       <use xlink:href="#DejaVuSans-30" x="63.623047"/>
       <use xlink:href="#DejaVuSans-32" x="127.246094"/>
       <use xlink:href="#DejaVuSans-35" x="190.869141"/>
       <use xlink:href="#DejaVuSans-2d" x="254.492188"/>
       <use xlink:href="#DejaVuSans-30" x="290.576172"/>
       <use xlink:href="#DejaVuSans-31" x="354.199219"/>
      </g>
     </g>
    </g>
   </g>
   <g id="matplotlib.axis_2">
    <g id="ytick_1">
     <g id="line2d_23">
      <path d="M 108 307.836165 
L 777.6 307.836165 
" clip-path="url(#p12095a9dd5)" style="fill: none; stroke-dasharray: 5.12,1.28,0.8,1.28; stroke-dashoffset: 0; stroke: #b0b0b0; stroke-width: 0.8"/>
     </g>
     <g id="line2d_24">
      <defs>
       <path id="meef67f47e5" d="M 0 0 
L -3.5 0 
" style="stroke: #a9a9a9; stroke-width: 0.8"/>
      </defs>
      <g>
       <use xlink:href="#meef67f47e5" x="108" y="307.836165" style="fill: #a9a9a9; stroke: #a9a9a9; stroke-width: 0.8"/>
      </g>
     </g>
     <g id="text_12">
      <!-- 0 -->
      <g style="fill: #a9a9a9" transform="translate(94.6375 311.635384) scale(0.1 -0.1)">
       <use xlink:href="#DejaVuSans-30"/>
      </g>
     </g>
    </g>
    <g id="ytick_2">
     <g id="line2d_25">
      <path d="M 108 278.903904 
L 777.6 278.903904 
" clip-path="url(#p12095a9dd5)" style="fill: none; stroke-dasharray: 5.12,1.28,0.8,1.28; stroke-dashoffset: 0; stroke: #b0b0b0; stroke-width: 0.8"/>
     </g>
     <g id="line2d_26">
      <g>
       <use xlink:href="#meef67f47e5" x="108" y="278.903904" style="fill: #a9a9a9; stroke: #a9a9a9; stroke-width: 0.8"/>
      </g>
     </g>
     <g id="text_13">
      <!-- 800 -->
      <g style="fill: #a9a9a9" transform="translate(81.9125 282.703122) scale(0.1 -0.1)">
       <defs>
        <path id="DejaVuSans-38" d="M 2034 2216 
Q 1584 2216 1326 1975 
Q 1069 1734 1069 1313 
Q 1069 891 1326 650 
Q 1584 409 2034 409 
Q 2484 409 2743 651 
Q 3003 894 3003 1313 
Q 3003 1734 2745 1975 
Q 2488 2216 2034 2216 
z
M 1403 2484 
Q 997 2584 770 2862 
Q 544 3141 544 3541 
Q 544 4100 942 4425 
Q 1341 4750 2034 4750 
Q 2731 4750 3128 4425 
Q 3525 4100 3525 3541 
Q 3525 3141 3298 2862 
Q 3072 2584 2669 2484 
Q 3125 2378 3379 2068 
Q 3634 1759 3634 1313 
Q 3634 634 3220 271 
Q 2806 -91 2034 -91 
Q 1263 -91 848 271 
Q 434 634 434 1313 
Q 434 1759 690 2068 
Q 947 2378 1403 2484 
z
M 1172 3481 
Q 1172 3119 1398 2916 
Q 1625 2713 2034 2713 
Q 2441 2713 2670 2916 
Q 2900 3119 2900 3481 
Q 2900 3844 2670 4047 
Q 2441 4250 2034 4250 
Q 1625 4250 1398 4047 
Q 1172 3844 1172 3481 
z
" transform="scale(0.015625)"/>
       </defs>
       <use xlink:href="#DejaVuSans-38"/>
       <use xlink:href="#DejaVuSans-30" x="63.623047"/>
       <use xlink:href="#DejaVuSans-30" x="127.246094"/>
      </g>
     </g>
    </g>
    <g id="ytick_3">
     <g id="line2d_27">
      <path d="M 108 249.971642 
L 777.6 249.971642 
" clip-path="url(#p12095a9dd5)" style="fill: none; stroke-dasharray: 5.12,1.28,0.8,1.28; stroke-dashoffset: 0; stroke: #b0b0b0; stroke-width: 0.8"/>
     </g>
     <g id="line2d_28">
      <g>
       <use xlink:href="#meef67f47e5" x="108" y="249.971642" style="fill: #a9a9a9; stroke: #a9a9a9; stroke-width: 0.8"/>
      </g>
     </g>
     <g id="text_14">
      <!-- 1600 -->
      <g style="fill: #a9a9a9" transform="translate(75.55 253.770861) scale(0.1 -0.1)">
       <defs>
        <path id="DejaVuSans-36" d="M 2113 2584 
Q 1688 2584 1439 2293 
Q 1191 2003 1191 1497 
Q 1191 994 1439 701 
Q 1688 409 2113 409 
Q 2538 409 2786 701 
Q 3034 994 3034 1497 
Q 3034 2003 2786 2293 
Q 2538 2584 2113 2584 
z
M 3366 4563 
L 3366 3988 
Q 3128 4100 2886 4159 
Q 2644 4219 2406 4219 
Q 1781 4219 1451 3797 
Q 1122 3375 1075 2522 
Q 1259 2794 1537 2939 
Q 1816 3084 2150 3084 
Q 2853 3084 3261 2657 
Q 3669 2231 3669 1497 
Q 3669 778 3244 343 
Q 2819 -91 2113 -91 
Q 1303 -91 875 529 
Q 447 1150 447 2328 
Q 447 3434 972 4092 
Q 1497 4750 2381 4750 
Q 2619 4750 2861 4703 
Q 3103 4656 3366 4563 
z
" transform="scale(0.015625)"/>
       </defs>
       <use xlink:href="#DejaVuSans-31"/>
       <use xlink:href="#DejaVuSans-36" x="63.623047"/>
       <use xlink:href="#DejaVuSans-30" x="127.246094"/>
       <use xlink:href="#DejaVuSans-30" x="190.869141"/>
      </g>
     </g>
    </g>
    <g id="ytick_4">
     <g id="line2d_29">
      <path d="M 108 221.03938 
L 777.6 221.03938 
" clip-path="url(#p12095a9dd5)" style="fill: none; stroke-dasharray: 5.12,1.28,0.8,1.28; stroke-dashoffset: 0; stroke: #b0b0b0; stroke-width: 0.8"/>
     </g>
     <g id="line2d_30">
      <g>
       <use xlink:href="#meef67f47e5" x="108" y="221.03938" style="fill: #a9a9a9; stroke: #a9a9a9; stroke-width: 0.8"/>
      </g>
     </g>
     <g id="text_15">
      <!-- 2400 -->
      <g style="fill: #a9a9a9" transform="translate(75.55 224.838599) scale(0.1 -0.1)">
       <use xlink:href="#DejaVuSans-32"/>
       <use xlink:href="#DejaVuSans-34" x="63.623047"/>
       <use xlink:href="#DejaVuSans-30" x="127.246094"/>
       <use xlink:href="#DejaVuSans-30" x="190.869141"/>
      </g>
     </g>
    </g>
    <g id="ytick_5">
     <g id="line2d_31">
      <path d="M 108 192.107118 
L 777.6 192.107118 
" clip-path="url(#p12095a9dd5)" style="fill: none; stroke-dasharray: 5.12,1.28,0.8,1.28; stroke-dashoffset: 0; stroke: #b0b0b0; stroke-width: 0.8"/>
     </g>
     <g id="line2d_32">
      <g>
       <use xlink:href="#meef67f47e5" x="108" y="192.107118" style="fill: #a9a9a9; stroke: #a9a9a9; stroke-width: 0.8"/>
      </g>
     </g>
     <g id="text_16">
      <!-- 3200 -->
      <g style="fill: #a9a9a9" transform="translate(75.55 195.906337) scale(0.1 -0.1)">
       <use xlink:href="#DejaVuSans-33"/>
       <use xlink:href="#DejaVuSans-32" x="63.623047"/>
       <use xlink:href="#DejaVuSans-30" x="127.246094"/>
       <use xlink:href="#DejaVuSans-30" x="190.869141"/>
      </g>
     </g>
    </g>
    <g id="ytick_6">
     <g id="line2d_33">
      <path d="M 108 163.174856 
L 777.6 163.174856 
" clip-path="url(#p12095a9dd5)" style="fill: none; stroke-dasharray: 5.12,1.28,0.8,1.28; stroke-dashoffset: 0; stroke: #b0b0b0; stroke-width: 0.8"/>
     </g>
     <g id="line2d_34">
      <g>
       <use xlink:href="#meef67f47e5" x="108" y="163.174856" style="fill: #a9a9a9; stroke: #a9a9a9; stroke-width: 0.8"/>
      </g>
     </g>
     <g id="text_17">
      <!-- 4000 -->
      <g style="fill: #a9a9a9" transform="translate(75.55 166.974075) scale(0.1 -0.1)">
       <use xlink:href="#DejaVuSans-34"/>
       <use xlink:href="#DejaVuSans-30" x="63.623047"/>
       <use xlink:href="#DejaVuSans-30" x="127.246094"/>
       <use xlink:href="#DejaVuSans-30" x="190.869141"/>
      </g>
     </g>
    </g>
    <g id="ytick_7">
     <g id="line2d_35">
      <path d="M 108 134.242595 
L 777.6 134.242595 
" clip-path="url(#p12095a9dd5)" style="fill: none; stroke-dasharray: 5.12,1.28,0.8,1.28; stroke-dashoffset: 0; stroke: #b0b0b0; stroke-width: 0.8"/>
     </g>
     <g id="line2d_36">
      <g>
       <use xlink:href="#meef67f47e5" x="108" y="134.242595" style="fill: #a9a9a9; stroke: #a9a9a9; stroke-width: 0.8"/>
      </g>
     </g>
     <g id="text_18">
      <!-- 4800 -->
      <g style="fill: #a9a9a9" transform="translate(75.55 138.041813) scale(0.1 -0.1)">
       <use xlink:href="#DejaVuSans-34"/>
       <use xlink:href="#DejaVuSans-38" x="63.623047"/>
       <use xlink:href="#DejaVuSans-30" x="127.246094"/>
       <use xlink:href="#DejaVuSans-30" x="190.869141"/>
      </g>
     </g>
    </g>
    <g id="ytick_8">
     <g id="line2d_37">
      <path d="M 108 105.310333 
L 777.6 105.310333 
" clip-path="url(#p12095a9dd5)" style="fill: none; stroke-dasharray: 5.12,1.28,0.8,1.28; stroke-dashoffset: 0; stroke: #b0b0b0; stroke-width: 0.8"/>
     </g>
     <g id="line2d_38">
      <g>
       <use xlink:href="#meef67f47e5" x="108" y="105.310333" style="fill: #a9a9a9; stroke: #a9a9a9; stroke-width: 0.8"/>
      </g>
     </g>
     <g id="text_19">
      <!-- 5600 -->
      <g style="fill: #a9a9a9" transform="translate(75.55 109.109552) scale(0.1 -0.1)">
       <use xlink:href="#DejaVuSans-35"/>
       <use xlink:href="#DejaVuSans-36" x="63.623047"/>
       <use xlink:href="#DejaVuSans-30" x="127.246094"/>
       <use xlink:href="#DejaVuSans-30" x="190.869141"/>
      </g>
     </g>
    </g>
    <g id="ytick_9">
     <g id="line2d_39">
      <path d="M 108 76.378071 
L 777.6 76.378071 
" clip-path="url(#p12095a9dd5)" style="fill: none; stroke-dasharray: 5.12,1.28,0.8,1.28; stroke-dashoffset: 0; stroke: #b0b0b0; stroke-width: 0.8"/>
     </g>
     <g id="line2d_40">
      <g>
       <use xlink:href="#meef67f47e5" x="108" y="76.378071" style="fill: #a9a9a9; stroke: #a9a9a9; stroke-width: 0.8"/>
      </g>
     </g>
     <g id="text_20">
      <!-- 6400 -->
      <g style="fill: #a9a9a9" transform="translate(75.55 80.17729) scale(0.1 -0.1)">
       <use xlink:href="#DejaVuSans-36"/>
       <use xlink:href="#DejaVuSans-34" x="63.623047"/>
       <use xlink:href="#DejaVuSans-30" x="127.246094"/>
       <use xlink:href="#DejaVuSans-30" x="190.869141"/>
      </g>
     </g>
    </g>
    <g id="ytick_10">
     <g id="line2d_41">
      <path d="M 108 47.445809 
L 777.6 47.445809 
" clip-path="url(#p12095a9dd5)" style="fill: none; stroke-dasharray: 5.12,1.28,0.8,1.28; stroke-dashoffset: 0; stroke: #b0b0b0; stroke-width: 0.8"/>
     </g>
     <g id="line2d_42">
      <g>
       <use xlink:href="#meef67f47e5" x="108" y="47.445809" style="fill: #a9a9a9; stroke: #a9a9a9; stroke-width: 0.8"/>
      </g>
     </g>
     <g id="text_21">
      <!-- 7200 -->
      <g style="fill: #a9a9a9" transform="translate(75.55 51.245028) scale(0.1 -0.1)">
       <defs>
        <path id="DejaVuSans-37" d="M 525 4666 
L 3525 4666 
L 3525 4397 
L 1831 0 
L 1172 0 
L 2766 4134 
L 525 4134 
L 525 4666 
z
" transform="scale(0.015625)"/>
       </defs>
       <use xlink:href="#DejaVuSans-37"/>
       <use xlink:href="#DejaVuSans-32" x="63.623047"/>
       <use xlink:href="#DejaVuSans-30" x="127.246094"/>
       <use xlink:href="#DejaVuSans-30" x="190.869141"/>
      </g>
     </g>
    </g>
   </g>
   <g id="line2d_43">
    <path d="M 138.436364 307.727669 
L 141.449865 307.474512 
L 141.952115 307.25752 
L 143.961116 307.004363 
L 145.970117 306.606544 
L 146.974617 306.461883 
L 149.485869 306.244891 
L 150.490369 305.847072 
L 150.992619 305.196096 
L 151.494869 304.834443 
L 151.99712 303.713318 
L 152.49937 303.640987 
L 153.00162 303.243169 
L 154.006121 302.736854 
L 156.015122 301.14558 
L 158.024122 300.169116 
L 159.530873 299.481975 
L 160.033123 298.686338 
L 161.037624 297.963031 
L 161.539874 297.746039 
L 166.562376 297.022732 
L 167.064626 296.805741 
L 170.580378 296.516418 
L 172.589379 296.046269 
L 176.607381 295.503789 
L 177.109631 295.250631 
L 177.611881 295.178301 
L 178.616382 294.852813 
L 182.132133 294.274168 
L 183.136634 293.984845 
L 187.656886 293.225373 
L 188.661386 293.008381 
L 189.665887 292.972216 
L 191.674887 292.502067 
L 192.177138 291.814925 
L 193.683888 291.23628 
L 195.190639 290.838462 
L 195.692889 290.585304 
L 196.69739 290.404478 
L 198.706391 289.825832 
L 199.710891 289.753502 
L 200.715392 289.500344 
L 202.724392 288.99403 
L 203.226643 288.957865 
L 204.231143 288.487715 
L 204.733393 288.415385 
L 205.235644 288.162227 
L 210.760396 287.258094 
L 212.769397 286.679449 
L 213.271647 286.353961 
L 215.782898 285.522158 
L 216.787399 284.835017 
L 218.294149 284.545695 
L 231.352655 280.892997 
L 231.854905 280.892997 
L 232.357156 280.676005 
L 233.361656 280.567509 
L 233.863906 280.386682 
L 235.872907 280.278186 
L 236.877408 280.097359 
L 237.881908 279.591045 
L 239.388659 279.048565 
L 239.890909 278.723077 
L 240.89541 278.289093 
L 241.39766 278.035936 
L 242.40216 277.710448 
L 242.90441 277.565786 
L 243.908911 276.950976 
L 244.411161 276.408496 
L 245.415662 274.889552 
L 245.917912 274.744891 
L 246.420162 274.744891 
L 247.926913 273.876923 
L 248.429163 273.623766 
L 248.931413 273.51527 
L 249.433663 273.045121 
L 250.438164 272.647302 
L 251.442664 272.177153 
L 253.953915 268.994604 
L 256.967417 267.40333 
L 257.971917 266.607692 
L 258.474167 266.282204 
L 258.976418 265.522732 
L 259.478668 264.401607 
L 259.980918 263.642135 
L 260.483168 263.244317 
L 260.985419 263.027325 
L 264.50117 260.061768 
L 265.505671 258.868312 
L 266.510171 258.145006 
L 268.016922 257.132377 
L 268.519172 256.698393 
L 269.523672 256.372905 
L 271.030423 255.504937 
L 272.537174 254.528473 
L 274.546175 252.756372 
L 275.550675 252.358553 
L 276.555176 251.671412 
L 277.057426 251.38209 
L 277.559676 251.309759 
L 279.066427 250.477956 
L 279.568677 249.935476 
L 282.079928 248.597359 
L 282.582178 248.416533 
L 284.088929 247.403904 
L 291.622682 244.763835 
L 292.627183 243.859701 
L 293.631683 243.389552 
L 294.636184 242.847072 
L 295.138434 242.55775 
L 296.142934 242.268427 
L 296.645185 241.942939 
L 297.147435 241.798278 
L 298.654185 240.821814 
L 301.165437 240.243169 
L 302.672187 239.375201 
L 304.178938 239.049713 
L 304.681188 238.905052 
L 306.187939 237.783927 
L 308.19694 237.241447 
L 308.69919 236.843628 
L 311.712691 235.830999 
L 312.717192 235.650172 
L 313.721692 235.252354 
L 317.237444 233.986567 
L 318.241944 233.841906 
L 319.748695 233.335591 
L 322.259946 232.142135 
L 324.268947 231.057176 
L 328.286949 229.429736 
L 328.789199 229.357405 
L 329.793699 228.742595 
L 330.29595 228.670264 
L 332.30495 227.838462 
L 334.313951 227.549139 
L 335.318452 227.042824 
L 335.820702 226.60884 
L 336.322952 225.704707 
L 338.331953 225.162227 
L 339.838704 224.402755 
L 340.340954 224.294259 
L 344.358956 222.377497 
L 345.865707 222.088175 
L 346.870207 221.58186 
L 347.372457 221.364868 
L 347.874707 221.292537 
L 349.883708 220.388404 
L 351.390459 219.448106 
L 352.89721 219.158783 
L 355.408461 218.543972 
L 355.910711 218.146154 
L 357.417462 217.603674 
L 359.426463 216.808037 
L 359.928713 216.446383 
L 360.430963 216.265557 
L 361.435464 215.723077 
L 363.946715 214.891274 
L 365.453465 213.697819 
L 365.955716 213.589323 
L 366.960216 212.793685 
L 367.462466 212.721355 
L 367.964716 211.925718 
L 368.466967 211.708726 
L 368.969217 211.310907 
L 369.471467 211.238576 
L 370.475968 210.623766 
L 371.480468 210.298278 
L 371.982718 209.936625 
L 372.484968 209.755798 
L 373.991719 208.707003 
L 376.00072 207.658209 
L 376.50297 207.585878 
L 378.009721 206.826406 
L 378.511971 205.994604 
L 379.516472 205.271297 
L 380.018722 205.162801 
L 381.023222 204.547991 
L 381.525473 204.439495 
L 382.529973 203.93318 
L 384.538974 202.956716 
L 385.041224 202.595063 
L 386.045725 201.618599 
L 387.050225 201.003789 
L 387.552475 200.678301 
L 388.054725 200.135821 
L 390.063726 198.761538 
L 390.565977 198.182893 
L 391.068227 197.785075 
L 392.072727 197.423421 
L 393.077228 196.73628 
L 394.583978 195.976808 
L 395.086229 195.904478 
L 396.592979 195.10884 
L 397.59748 194.49403 
L 402.619982 192.685763 
L 403.122232 192.287945 
L 405.131233 191.528473 
L 405.633483 191.383812 
L 406.135734 190.985993 
L 408.646985 189.611711 
L 409.651485 187.622618 
L 410.655986 186.465327 
L 411.660486 185.886682 
L 413.167237 185.271871 
L 413.669487 185.199541 
L 414.171737 184.910218 
L 416.682988 184.114581 
L 417.185239 183.897589 
L 418.189739 183.210448 
L 419.69649 182.559472 
L 420.70099 182.016992 
L 421.20324 181.655339 
L 421.705491 181.438347 
L 422.207741 181.076693 
L 422.709991 180.534214 
L 423.714491 179.991734 
L 426.225743 178.653617 
L 429.239244 177.170838 
L 430.745995 176.736854 
L 432.252745 176.158209 
L 432.754995 175.796556 
L 433.759496 175.507233 
L 434.763996 175.109414 
L 435.266247 174.711596 
L 437.275248 174.024455 
L 438.279748 173.301148 
L 439.284248 172.867164 
L 440.288749 172.071527 
L 441.293249 171.709874 
L 441.7955 171.27589 
L 442.29775 171.203559 
L 443.30225 170.444087 
L 444.306751 169.937773 
L 444.809001 169.720781 
L 445.311251 169.214466 
L 448.827003 167.840184 
L 449.831503 167.4062 
L 451.338254 166.936051 
L 452.342754 166.791389 
L 452.845005 166.574397 
L 453.347255 166.502067 
L 454.351755 166.068083 
L 454.854005 166.031917 
L 456.863006 165.272445 
L 458.369757 164.223651 
L 458.872007 164.042824 
L 459.876508 163.500344 
L 460.378758 163.355683 
L 463.392259 161.692078 
L 463.894509 161.583582 
L 465.40126 160.715614 
L 466.908011 160.2093 
L 467.912511 159.883812 
L 469.921512 159.232836 
L 470.926013 158.907348 
L 472.935014 158.509529 
L 473.437264 158.292537 
L 473.939514 158.220207 
L 474.944014 157.786223 
L 475.446265 157.713892 
L 475.948515 157.460735 
L 476.953015 157.279908 
L 478.459766 156.737428 
L 479.464266 156.628932 
L 480.971017 156.303444 
L 483.482268 155.86946 
L 496.540774 152.108266 
L 497.043024 151.601952 
L 498.047525 151.204133 
L 501.061026 150.119173 
L 501.563276 149.793685 
L 502.065527 149.685189 
L 502.567777 149.395867 
L 504.074527 148.961883 
L 505.079028 148.708726 
L 505.581278 148.383238 
L 506.083528 148.274742 
L 506.585779 147.840758 
L 508.092529 147.551435 
L 509.09703 147.081286 
L 509.59928 146.502641 
L 511.608281 146.032491 
L 515.124032 145.309185 
L 515.626283 145.309185 
L 516.128533 145.092193 
L 518.137534 144.73054 
L 518.639784 144.513548 
L 520.648785 144.151894 
L 521.653285 143.71791 
L 522.657786 143.537084 
L 525.169037 142.922273 
L 527.178038 142.307463 
L 527.680288 142.198967 
L 528.182538 141.945809 
L 529.187039 141.692652 
L 529.689289 141.40333 
L 531.19604 140.897015 
L 531.69829 140.571527 
L 532.70279 140.282204 
L 533.707291 139.956716 
L 534.711791 139.558898 
L 536.218542 138.907922 
L 538.227543 138.654765 
L 542.245545 137.244317 
L 542.747795 136.882664 
L 543.250045 136.774168 
L 543.752295 136.52101 
L 544.254545 136.484845 
L 549.779298 134.568083 
L 552.290549 133.917107 
L 553.29505 133.446958 
L 554.8018 133.12147 
L 555.30405 132.723651 
L 555.806301 132.470494 
L 556.308551 131.855683 
L 556.810801 131.49403 
L 557.815302 131.204707 
L 558.317552 130.806889 
L 561.331053 129.685763 
L 561.833303 129.360276 
L 562.837804 129.070953 
L 563.340054 128.745465 
L 565.851305 127.949828 
L 567.358056 127.08186 
L 567.860306 126.973364 
L 570.371557 125.635247 
L 571.878308 124.984271 
L 572.380558 124.622618 
L 573.385059 124.29713 
L 574.389559 123.718485 
L 574.891809 123.537658 
L 575.394059 123.176005 
L 581.923312 120.897589 
L 582.425563 120.789093 
L 582.927813 120.463605 
L 584.936814 120.065786 
L 585.941314 119.667968 
L 586.443564 119.378645 
L 586.945815 119.233984 
L 588.954815 118.185189 
L 589.457066 118.112859 
L 590.963816 117.281056 
L 592.470567 116.774742 
L 595.986319 115.364294 
L 596.488569 115.219633 
L 596.990819 114.894145 
L 597.99532 114.785649 
L 598.49757 114.460161 
L 599.50207 114.279334 
L 600.506571 113.809185 
L 601.008821 113.592193 
L 601.511071 113.519862 
L 604.022322 112.543398 
L 605.529073 112.14558 
L 606.533573 111.892423 
L 608.040324 111.458439 
L 609.044824 111.06062 
L 611.053825 109.97566 
L 612.058326 109.577842 
L 612.560576 109.252354 
L 613.565077 109.035362 
L 614.067327 108.746039 
L 614.569577 108.637543 
L 616.076328 107.805741 
L 617.080828 107.407922 
L 619.089829 106.64845 
L 621.60108 105.816648 
L 622.605581 105.310333 
L 625.116832 104.47853 
L 626.623582 103.936051 
L 627.125833 103.791389 
L 628.130333 103.248909 
L 630.139334 102.344776 
L 635.161836 100.428014 
L 635.664086 100.102526 
L 637.673087 99.415385 
L 638.175338 99.415385 
L 639.179838 98.981401 
L 640.184338 98.077268 
L 640.686589 97.643284 
L 642.193339 96.919977 
L 642.69559 96.811481 
L 643.19784 96.558324 
L 643.70009 96.485993 
L 644.20234 96.12434 
L 644.70459 96.015844 
L 645.709091 95.401033 
L 647.215842 94.641561 
L 648.220342 94.243743 
L 648.722592 93.990586 
L 650.229343 93.665098 
L 652.740594 92.833295 
L 653.745095 92.507807 
L 655.251845 91.748335 
L 656.256346 91.278186 
L 657.260846 91.025029 
L 658.767597 90.337887 
L 663.287849 88.674282 
L 664.794599 87.770149 
L 665.29685 87.661653 
L 666.30135 87.155339 
L 667.305851 86.793685 
L 667.808101 86.359701 
L 668.812601 85.961883 
L 670.319352 85.347072 
L 670.821602 84.949254 
L 671.323852 84.913088 
L 672.328353 84.623766 
L 673.332853 84.298278 
L 673.835104 84.045121 
L 674.337354 83.97279 
L 675.844104 83.43031 
L 677.350855 82.88783 
L 678.355356 82.490011 
L 678.857606 82.092193 
L 680.364356 81.694374 
L 680.866607 81.405052 
L 681.871107 81.151894 
L 683.377858 80.320092 
L 683.880108 80.283927 
L 685.386859 79.813777 
L 686.391359 79.741447 
L 687.39586 79.343628 
L 690.409361 78.47566 
L 691.413861 78.439495 
L 695.431863 77.173708 
L 696.436364 76.631228 
L 696.938614 76.197245 
L 698.445365 75.329277 
L 699.449865 74.714466 
L 701.458866 74.135821 
L 701.961116 73.846498 
L 702.463366 73.738002 
L 702.965617 73.340184 
L 705.979118 72.110563 
L 707.988119 71.568083 
L 708.992619 71.134099 
L 709.494869 70.880941 
L 710.49937 70.591619 
L 711.00162 70.266131 
L 712.006121 70.085304 
L 714.517372 68.928014 
L 715.019622 68.638691 
L 716.526373 68.277038 
L 718.033123 67.300574 
L 718.535374 67.228243 
L 721.046625 66.25178 
L 722.553375 65.890126 
L 723.055626 65.817796 
L 723.557876 65.600804 
L 724.060126 65.564638 
L 725.064626 65.23915 
L 725.566877 65.202985 
L 727.073627 64.62434 
L 729.082628 64.045695 
L 730.087129 63.286223 
L 732.09613 62.201263 
L 733.60288 61.694948 
L 736.616382 60.356831 
L 737.620882 59.814351 
L 738.123132 59.561194 
L 738.625383 59.091045 
L 741.136634 58.367738 
L 742.141134 57.825258 
L 744.150135 57.101952 
L 744.652385 56.631803 
L 747.163636 55.8 
L 747.163636 55.8 
" clip-path="url(#p12095a9dd5)" style="fill: none; stroke: #1f77b4; stroke-width: 1.5; stroke-linecap: square"/>
   </g>
   <g id="line2d_44">
    <path d="M 138.938614 307.8 
L 143.458866 307.691504 
L 147.476868 307.510677 
L 149.485869 307.510677 
L 149.988119 307.366016 
L 152.49937 307.25752 
L 155.512871 306.932032 
L 158.526373 306.823536 
L 159.530873 306.71504 
L 163.046625 306.570379 
L 166.562376 306.461883 
L 169.073627 306.389552 
L 175.60288 306.281056 
L 178.114131 306.208726 
L 181.629883 306.10023 
L 184.141134 306.027899 
L 189.665887 305.919403 
L 191.674887 305.738576 
L 193.683888 305.702411 
L 196.69739 305.593915 
L 198.706391 305.55775 
L 201.217642 305.485419 
L 203.226643 305.304592 
L 207.746895 305.196096 
L 208.751395 305.123766 
L 210.760396 305.01527 
L 213.773897 304.906774 
L 215.782898 304.798278 
L 224.823402 304.255798 
L 228.339154 304.147302 
L 229.845905 304.002641 
L 232.357156 303.894145 
L 237.379658 303.640987 
L 242.40216 303.568657 
L 244.411161 303.351665 
L 246.420162 303.243169 
L 251.944914 302.736854 
L 255.460666 302.339036 
L 256.967417 302.266705 
L 261.487669 301.724225 
L 263.99892 301.651894 
L 265.505671 301.507233 
L 267.012421 301.398737 
L 281.075428 300.349943 
L 282.079928 300.169116 
L 285.093429 300.06062 
L 293.129433 299.590471 
L 296.645185 299.481975 
L 298.654185 299.264983 
L 301.165437 299.156487 
L 304.178938 299.047991 
L 306.690189 298.939495 
L 308.69919 298.90333 
L 311.210441 298.830999 
L 312.214941 298.686338 
L 319.246445 298.577842 
L 320.250945 298.469346 
L 326.277948 298.36085 
L 330.7982 298.143858 
L 334.313951 298.035362 
L 336.322952 297.81837 
L 339.838704 297.709874 
L 340.843204 297.529047 
L 343.354455 297.456716 
L 348.376958 297.384386 
L 350.888209 297.131228 
L 353.90171 297.022732 
L 355.910711 296.841906 
L 360.933213 296.588749 
L 365.955716 296.480253 
L 370.475968 296.263261 
L 371.982718 296.227095 
L 372.987219 296.082434 
L 375.49847 295.973938 
L 376.50297 295.901607 
L 377.507471 295.829277 
L 378.511971 295.756946 
L 383.032223 295.684615 
L 384.538974 295.576119 
L 398.09973 294.708152 
L 400.610981 294.599656 
L 403.122232 294.527325 
L 410.153735 294.418829 
L 411.158236 294.274168 
L 418.189739 294.165672 
L 423.212241 293.912514 
L 424.216742 293.876349 
L 425.221242 293.767853 
L 427.732493 293.659357 
L 430.243744 293.587026 
L 432.754995 293.47853 
L 435.266247 293.4062 
L 439.786499 293.297704 
L 442.8 293.189208 
L 449.831503 293.080712 
L 455.356256 292.791389 
L 457.365257 292.719059 
L 458.872007 292.610563 
L 465.90351 292.502067 
L 468.917012 292.393571 
L 477.957516 292.285075 
L 479.966517 292.248909 
L 485.993519 292.176579 
L 486.99802 292.104248 
L 494.029523 291.995752 
L 496.038524 291.959587 
L 509.09703 291.851091 
L 510.60378 291.706429 
L 533.205041 291.597933 
L 535.716292 291.525603 
L 548.774797 291.417107 
L 549.779298 291.344776 
L 552.290549 291.272445 
L 553.7973 291.127784 
L 556.810801 291.019288 
L 560.326553 290.874627 
L 564.846805 290.766131 
L 567.358056 290.6938 
L 570.873807 290.585304 
L 574.891809 290.404478 
L 577.40306 290.295982 
L 579.412061 290.259816 
L 583.932313 290.15132 
L 585.941314 290.115155 
L 592.470567 290.006659 
L 594.479568 289.970494 
L 596.990819 289.861998 
L 600.00432 289.753502 
L 603.520072 289.681171 
L 604.524572 289.60884 
L 616.578578 289.500344 
L 623.107831 289.138691 
L 625.619082 289.066361 
L 626.623582 288.957865 
L 627.628083 288.885534 
L 631.646085 288.777038 
L 634.659586 288.668542 
L 639.682088 288.560046 
L 642.193339 288.306889 
L 647.215842 288.198393 
L 648.220342 288.089897 
L 653.242844 287.981401 
L 655.754095 287.90907 
L 661.278848 287.872905 
L 662.283348 287.764409 
L 667.808101 287.655913 
L 668.812601 287.583582 
L 679.862106 287.475086 
L 682.875608 287.36659 
L 690.409361 287.258094 
L 692.418362 287.221929 
L 696.938614 287.149598 
L 697.943114 287.041102 
L 703.970117 286.932606 
L 706.983618 286.82411 
L 716.024122 286.715614 
L 717.530873 286.607118 
L 719.037624 286.498622 
L 720.544374 286.390126 
L 728.078128 286.28163 
L 731.593879 286.136969 
L 744.652385 286.028473 
L 747.163636 285.919977 
L 747.163636 285.919977 
" clip-path="url(#p12095a9dd5)" style="fill: none; stroke: #ff7f0e; stroke-width: 1.5; stroke-linecap: square"/>
   </g>
   <g id="patch_3">
    <path d="M 108 320.4 
L 108 43.2 
" style="fill: none; stroke: #a9a9a9; stroke-width: 0.8; stroke-linejoin: miter; stroke-linecap: square"/>
   </g>
   <g id="patch_4">
    <path d="M 777.6 320.4 
L 777.6 43.2 
" style="fill: none"/>
   </g>
   <g id="patch_5">
    <path d="M 108 320.4 
L 777.6 320.4 
" style="fill: none; stroke: #a9a9a9; stroke-width: 0.8; stroke-linejoin: miter; stroke-linecap: square"/>
   </g>
   <g id="patch_6">
    <path d="M 108 43.2 
L 777.6 43.2 
" style="fill: none"/>
   </g>
   <g id="text_22">
    <!-- get_subscribe history -->
    <g style="fill: #a9a9a9" transform="translate(378.6075 37.2) scale(0.12 -0.12)">
     <defs>
      <path id="DejaVuSans-67" d="M 2906 1791 
Q 2906 2416 2648 2759 
Q 2391 3103 1925 3103 
Q 1463 3103 1205 2759 
Q 947 2416 947 1791 
Q 947 1169 1205 825 
Q 1463 481 1925 481 
Q 2391 481 2648 825 
Q 2906 1169 2906 1791 
z
M 3481 434 
Q 3481 -459 3084 -895 
Q 2688 -1331 1869 -1331 
Q 1566 -1331 1297 -1286 
Q 1028 -1241 775 -1147 
L 775 -588 
Q 1028 -725 1275 -790 
Q 1522 -856 1778 -856 
Q 2344 -856 2625 -561 
Q 2906 -266 2906 331 
L 2906 616 
Q 2728 306 2450 153 
Q 2172 0 1784 0 
Q 1141 0 747 490 
Q 353 981 353 1791 
Q 353 2603 747 3093 
Q 1141 3584 1784 3584 
Q 2172 3584 2450 3431 
Q 2728 3278 2906 2969 
L 2906 3500 
L 3481 3500 
L 3481 434 
z
" transform="scale(0.015625)"/>
      <path id="DejaVuSans-65" d="M 3597 1894 
L 3597 1613 
L 953 1613 
Q 991 1019 1311 708 
Q 1631 397 2203 397 
Q 2534 397 2845 478 
Q 3156 559 3463 722 
L 3463 178 
Q 3153 47 2828 -22 
Q 2503 -91 2169 -91 
Q 1331 -91 842 396 
Q 353 884 353 1716 
Q 353 2575 817 3079 
Q 1281 3584 2069 3584 
Q 2775 3584 3186 3129 
Q 3597 2675 3597 1894 
z
M 3022 2063 
Q 3016 2534 2758 2815 
Q 2500 3097 2075 3097 
Q 1594 3097 1305 2825 
Q 1016 2553 972 2059 
L 3022 2063 
z
" transform="scale(0.015625)"/>
      <path id="DejaVuSans-74" d="M 1172 4494 
L 1172 3500 
L 2356 3500 
L 2356 3053 
L 1172 3053 
L 1172 1153 
Q 1172 725 1289 603 
Q 1406 481 1766 481 
L 2356 481 
L 2356 0 
L 1766 0 
Q 1100 0 847 248 
Q 594 497 594 1153 
L 594 3053 
L 172 3053 
L 172 3500 
L 594 3500 
L 594 4494 
L 1172 4494 
z
" transform="scale(0.015625)"/>
      <path id="DejaVuSans-5f" d="M 3263 -1063 
L 3263 -1509 
L -63 -1509 
L -63 -1063 
L 3263 -1063 
z
" transform="scale(0.015625)"/>
      <path id="DejaVuSans-73" d="M 2834 3397 
L 2834 2853 
Q 2591 2978 2328 3040 
Q 2066 3103 1784 3103 
Q 1356 3103 1142 2972 
Q 928 2841 928 2578 
Q 928 2378 1081 2264 
Q 1234 2150 1697 2047 
L 1894 2003 
Q 2506 1872 2764 1633 
Q 3022 1394 3022 966 
Q 3022 478 2636 193 
Q 2250 -91 1575 -91 
Q 1294 -91 989 -36 
Q 684 19 347 128 
L 347 722 
Q 666 556 975 473 
Q 1284 391 1588 391 
Q 1994 391 2212 530 
Q 2431 669 2431 922 
Q 2431 1156 2273 1281 
Q 2116 1406 1581 1522 
L 1381 1569 
Q 847 1681 609 1914 
Q 372 2147 372 2553 
Q 372 3047 722 3315 
Q 1072 3584 1716 3584 
Q 2034 3584 2315 3537 
Q 2597 3491 2834 3397 
z
" transform="scale(0.015625)"/>
      <path id="DejaVuSans-75" d="M 544 1381 
L 544 3500 
L 1119 3500 
L 1119 1403 
Q 1119 906 1312 657 
Q 1506 409 1894 409 
Q 2359 409 2629 706 
Q 2900 1003 2900 1516 
L 2900 3500 
L 3475 3500 
L 3475 0 
L 2900 0 
L 2900 538 
Q 2691 219 2414 64 
Q 2138 -91 1772 -91 
Q 1169 -91 856 284 
Q 544 659 544 1381 
z
M 1991 3584 
L 1991 3584 
z
" transform="scale(0.015625)"/>
      <path id="DejaVuSans-62" d="M 3116 1747 
Q 3116 2381 2855 2742 
Q 2594 3103 2138 3103 
Q 1681 3103 1420 2742 
Q 1159 2381 1159 1747 
Q 1159 1113 1420 752 
Q 1681 391 2138 391 
Q 2594 391 2855 752 
Q 3116 1113 3116 1747 
z
M 1159 2969 
Q 1341 3281 1617 3432 
Q 1894 3584 2278 3584 
Q 2916 3584 3314 3078 
Q 3713 2572 3713 1747 
Q 3713 922 3314 415 
Q 2916 -91 2278 -91 
Q 1894 -91 1617 61 
Q 1341 213 1159 525 
L 1159 0 
L 581 0 
L 581 4863 
L 1159 4863 
L 1159 2969 
z
" transform="scale(0.015625)"/>
      <path id="DejaVuSans-63" d="M 3122 3366 
L 3122 2828 
Q 2878 2963 2633 3030 
Q 2388 3097 2138 3097 
Q 1578 3097 1268 2742 
Q 959 2388 959 1747 
Q 959 1106 1268 751 
Q 1578 397 2138 397 
Q 2388 397 2633 464 
Q 2878 531 3122 666 
L 3122 134 
Q 2881 22 2623 -34 
Q 2366 -91 2075 -91 
Q 1284 -91 818 406 
Q 353 903 353 1747 
Q 353 2603 823 3093 
Q 1294 3584 2113 3584 
Q 2378 3584 2631 3529 
Q 2884 3475 3122 3366 
z
" transform="scale(0.015625)"/>
      <path id="DejaVuSans-72" d="M 2631 2963 
Q 2534 3019 2420 3045 
Q 2306 3072 2169 3072 
Q 1681 3072 1420 2755 
Q 1159 2438 1159 1844 
L 1159 0 
L 581 0 
L 581 3500 
L 1159 3500 
L 1159 2956 
Q 1341 3275 1631 3429 
Q 1922 3584 2338 3584 
Q 2397 3584 2469 3576 
Q 2541 3569 2628 3553 
L 2631 2963 
z
" transform="scale(0.015625)"/>
      <path id="DejaVuSans-69" d="M 603 3500 
L 1178 3500 
L 1178 0 
L 603 0 
L 603 3500 
z
M 603 4863 
L 1178 4863 
L 1178 4134 
L 603 4134 
L 603 4863 
z
" transform="scale(0.015625)"/>
      <path id="DejaVuSans-20" transform="scale(0.015625)"/>
      <path id="DejaVuSans-68" d="M 3513 2113 
L 3513 0 
L 2938 0 
L 2938 2094 
Q 2938 2591 2744 2837 
Q 2550 3084 2163 3084 
Q 1697 3084 1428 2787 
Q 1159 2491 1159 1978 
L 1159 0 
L 581 0 
L 581 4863 
L 1159 4863 
L 1159 2956 
Q 1366 3272 1645 3428 
Q 1925 3584 2291 3584 
Q 2894 3584 3203 3211 
Q 3513 2838 3513 2113 
z
" transform="scale(0.015625)"/>
      <path id="DejaVuSans-6f" d="M 1959 3097 
Q 1497 3097 1228 2736 
Q 959 2375 959 1747 
Q 959 1119 1226 758 
Q 1494 397 1959 397 
Q 2419 397 2687 759 
Q 2956 1122 2956 1747 
Q 2956 2369 2687 2733 
Q 2419 3097 1959 3097 
z
M 1959 3584 
Q 2709 3584 3137 3096 
Q 3566 2609 3566 1747 
Q 3566 888 3137 398 
Q 2709 -91 1959 -91 
Q 1206 -91 779 398 
Q 353 888 353 1747 
Q 353 2609 779 3096 
Q 1206 3584 1959 3584 
z
" transform="scale(0.015625)"/>
      <path id="DejaVuSans-79" d="M 2059 -325 
Q 1816 -950 1584 -1140 
Q 1353 -1331 966 -1331 
L 506 -1331 
L 506 -850 
L 844 -850 
Q 1081 -850 1212 -737 
Q 1344 -625 1503 -206 
L 1606 56 
L 191 3500 
L 800 3500 
L 1894 763 
L 2988 3500 
L 3597 3500 
L 2059 -325 
z
" transform="scale(0.015625)"/>
     </defs>
     <use xlink:href="#DejaVuSans-67"/>
     <use xlink:href="#DejaVuSans-65" x="63.476562"/>
     <use xlink:href="#DejaVuSans-74" x="125"/>
     <use xlink:href="#DejaVuSans-5f" x="164.208984"/>
     <use xlink:href="#DejaVuSans-73" x="214.208984"/>
     <use xlink:href="#DejaVuSans-75" x="266.308594"/>
     <use xlink:href="#DejaVuSans-62" x="329.6875"/>
     <use xlink:href="#DejaVuSans-73" x="393.164062"/>
     <use xlink:href="#DejaVuSans-63" x="445.263672"/>
     <use xlink:href="#DejaVuSans-72" x="500.244141"/>
     <use xlink:href="#DejaVuSans-69" x="541.357422"/>
     <use xlink:href="#DejaVuSans-62" x="569.140625"/>
     <use xlink:href="#DejaVuSans-65" x="632.617188"/>
     <use xlink:href="#DejaVuSans-20" x="694.140625"/>
     <use xlink:href="#DejaVuSans-68" x="725.927734"/>
     <use xlink:href="#DejaVuSans-69" x="789.306641"/>
     <use xlink:href="#DejaVuSans-73" x="817.089844"/>
     <use xlink:href="#DejaVuSans-74" x="869.189453"/>
     <use xlink:href="#DejaVuSans-6f" x="908.398438"/>
     <use xlink:href="#DejaVuSans-72" x="969.580078"/>
     <use xlink:href="#DejaVuSans-79" x="1010.693359"/>
    </g>
   </g>
   <g id="legend_1">
    <g id="line2d_45">
     <path d="M 815.08 328.498438 
L 825.08 328.498438 
L 835.08 328.498438 
" style="fill: none; stroke: #1f77b4; stroke-width: 1.5; stroke-linecap: square"/>
    </g>
    <g id="text_23">
     <!-- star -->
     <g style="fill: #a9a9a9" transform="translate(843.08 331.998438) scale(0.1 -0.1)">
      <defs>
       <path id="DejaVuSans-61" d="M 2194 1759 
Q 1497 1759 1228 1600 
Q 959 1441 959 1056 
Q 959 750 1161 570 
Q 1363 391 1709 391 
Q 2188 391 2477 730 
Q 2766 1069 2766 1631 
L 2766 1759 
L 2194 1759 
z
M 3341 1997 
L 3341 0 
L 2766 0 
L 2766 531 
Q 2569 213 2275 61 
Q 1981 -91 1556 -91 
Q 1019 -91 701 211 
Q 384 513 384 1019 
Q 384 1609 779 1909 
Q 1175 2209 1959 2209 
L 2766 2209 
L 2766 2266 
Q 2766 2663 2505 2880 
Q 2244 3097 1772 3097 
Q 1472 3097 1187 3025 
Q 903 2953 641 2809 
L 641 3341 
Q 956 3463 1253 3523 
Q 1550 3584 1831 3584 
Q 2591 3584 2966 3190 
Q 3341 2797 3341 1997 
z
" transform="scale(0.015625)"/>
      </defs>
      <use xlink:href="#DejaVuSans-73"/>
      <use xlink:href="#DejaVuSans-74" x="52.099609"/>
      <use xlink:href="#DejaVuSans-61" x="91.308594"/>
      <use xlink:href="#DejaVuSans-72" x="152.587891"/>
     </g>
    </g>
    <g id="line2d_46">
     <path d="M 815.08 343.176562 
L 825.08 343.176562 
L 835.08 343.176562 
" style="fill: none; stroke: #ff7f0e; stroke-width: 1.5; stroke-linecap: square"/>
    </g>
    <g id="text_24">
     <!-- fork -->
     <g style="fill: #a9a9a9" transform="translate(843.08 346.676562) scale(0.1 -0.1)">
      <defs>
       <path id="DejaVuSans-66" d="M 2375 4863 
L 2375 4384 
L 1825 4384 
Q 1516 4384 1395 4259 
Q 1275 4134 1275 3809 
L 1275 3500 
L 2222 3500 
L 2222 3053 
L 1275 3053 
L 1275 0 
L 697 0 
L 697 3053 
L 147 3053 
L 147 3500 
L 697 3500 
L 697 3744 
Q 697 4328 969 4595 
Q 1241 4863 1831 4863 
L 2375 4863 
z
" transform="scale(0.015625)"/>
       <path id="DejaVuSans-6b" d="M 581 4863 
L 1159 4863 
L 1159 1991 
L 2875 3500 
L 3609 3500 
L 1753 1863 
L 3688 0 
L 2938 0 
L 1159 1709 
L 1159 0 
L 581 0 
L 581 4863 
z
" transform="scale(0.015625)"/>
      </defs>
      <use xlink:href="#DejaVuSans-66"/>
      <use xlink:href="#DejaVuSans-6f" x="35.205078"/>
      <use xlink:href="#DejaVuSans-72" x="96.386719"/>
      <use xlink:href="#DejaVuSans-6b" x="137.5"/>
     </g>
    </g>
   </g>
  </g>
 </g>
 <defs>
  <clipPath id="p12095a9dd5">
   <rect x="108" y="43.2" width="669.6" height="277.2"/>
  </clipPath>
 </defs>
</svg>
